<svg width="145" height="42" viewBox="0 0 145 42" fill="none" xmlns="http://www.w3.org/2000/svg">
<path d="M0 0.00012207V4.98904H7.68218V27.1239H14.0218V4.98904H21.7095V0.00012207H0Z" fill="#473560"/>
<path d="M36.0342 0H29.5442L18.9707 27.1238H23.9176C24.4468 27.1238 24.8869 26.98 25.249 26.7034C25.6167 26.4269 25.8563 26.1116 25.9844 25.7577L27.5944 21.0287H37.9784L39.5939 25.7577C39.7332 26.1614 39.9783 26.4877 40.3349 26.7366C40.6914 26.9911 41.1426 27.1183 41.6941 27.1183H46.6021L36.0342 0ZM29.0651 16.7533L31.5775 9.36944C31.7613 8.89377 31.9619 8.34068 32.1736 7.69356C32.3908 7.05197 32.597 6.34953 32.7975 5.59179C33.0092 6.33847 33.2265 7.02984 33.4437 7.67143C33.661 8.30749 33.856 8.86059 34.0175 9.33625L36.53 16.7588H29.0651V16.7533Z" fill="#473560"/>
<path d="M71.4508 27.1183H65.7128C64.6488 27.1183 63.8856 26.7256 63.4232 25.9291L58.8885 18.0586C58.6824 17.7156 58.454 17.4667 58.1811 17.3174C57.9137 17.1681 57.5348 17.0906 57.0502 17.0906H55.4402V27.1238H49.1006V13.3849C49.3457 12.9258 49.7969 12.1902 50.0699 12.1017C50.4933 11.9469 54.9778 12.2013 55.3344 12.4336C55.6797 12.688 53.0225 15.1216 52.6325 15.2267C52.2481 15.3318 50.9501 15.1604 50.7384 15.1825C50.5212 15.2267 49.7245 16.7533 49.8972 16.7533C50.0699 16.7533 53.1617 16.1227 53.4626 15.9125C53.7801 15.7024 57.2507 13.1249 57.7521 12.6769C58.2423 12.2179 58.5933 11.5652 58.1699 11.1393C58.1309 11.1006 58.0752 11.0564 58.0306 11.0232C57.5794 10.7245 56.8441 10.6969 56.287 10.5088C55.6575 10.3042 55.3343 9.94466 55.897 8.5232C56.4652 7.09622 58.5933 6.33847 58.5933 6.33847C59.3398 7.69355 60.8662 7.38382 60.8662 7.38382C60.8662 7.38382 61.4678 8.11391 62.1363 8.32961C62.7993 8.52873 62.8773 8.08072 63.05 7.42254C63.1112 7.19577 62.9775 6.79201 62.7491 6.31635C62.3202 5.39821 61.557 4.19799 61.2227 3.55087C60.7325 2.57742 61.2227 1.07853 61.2227 1.07853C60.3091 1.29424 60.0361 2.30088 60.0361 2.30088C60.0361 2.24004 58.5543 2.0188 58.4317 2.01327C56.8719 1.85287 55.1617 1.90818 53.6854 2.43362C52.4264 2.89822 49.7635 4.85618 49.5128 4.88383C49.3624 4.89489 49.2064 4.84511 49.1006 4.79534V0H57.9861C59.9581 0 61.6405 0.204643 63.0388 0.602872C64.4315 1.01216 65.568 1.57079 66.4482 2.28981C67.3228 3.01437 67.969 3.8606 68.3701 4.84511C68.7656 5.81856 68.9662 6.88603 68.9662 8.042C68.9662 8.92696 68.8492 9.7566 68.6097 10.542C68.3757 11.3219 68.0191 12.0409 67.5512 12.7101C67.0777 13.3739 66.5095 13.9712 65.8242 14.4856C65.1446 15.011 64.3591 15.4369 63.4733 15.7688C63.8967 15.9789 64.2923 16.2444 64.6599 16.5541C65.0276 16.8639 65.3507 17.2455 65.6293 17.688L71.4508 27.1183Z" fill="#473560"/>
<path d="M79.991 22.0962V0H73.6514V27.1238H90.1132V22.0962H79.991Z" fill="#473560"/>
<path d="M108.016 0H101.526L90.9473 27.1238H95.8997C96.4234 27.1238 96.8691 26.98 97.2312 26.7034C97.5933 26.4269 97.8384 26.1116 97.9665 25.7577L99.5765 21.0287H109.961L111.576 25.7577C111.715 26.1614 111.955 26.4877 112.317 26.7366C112.674 26.9911 113.125 27.1183 113.676 27.1183H118.584L108.016 0ZM101.036 16.7533L103.554 9.36944C103.738 8.89377 103.938 8.34068 104.15 7.69356C104.362 7.05197 104.568 6.34953 104.774 5.59179C104.986 6.33847 105.197 7.02984 105.42 7.67143C105.638 8.30749 105.833 8.86059 105.994 9.33625L108.507 16.7588H101.036V16.7533Z" fill="#473560"/>
<path d="M139.334 0V14.3528C139.334 14.7898 139.345 15.2544 139.373 15.7411C139.395 16.2278 139.434 16.7367 139.484 17.2566L126.515 0.967917C126.337 0.757741 126.181 0.591807 126.042 0.470126C125.902 0.348445 125.763 0.248894 125.613 0.182522C125.462 0.116151 125.29 0.0719034 125.106 0.0442486C124.922 0.0165939 124.688 0 124.415 0H121.078V27.1238H126.666V12.5885C126.666 12.1847 126.655 11.7699 126.627 11.3108C126.604 10.8628 126.571 10.3982 126.532 9.92253L139.406 26.084C139.718 26.4767 140.047 26.7477 140.381 26.897C140.715 27.0519 141.128 27.1238 141.618 27.1238H144.916V0H139.334Z" fill="#473560"/>
<path d="M8.45774 38.0422V41.6207H7.81152V32.738H10.1179C11.1652 32.738 11.9562 32.9648 12.491 33.4239C13.0258 33.8829 13.2932 34.5301 13.2932 35.3763C13.2932 35.7635 13.2208 36.123 13.076 36.4493C12.9311 36.7756 12.7194 37.0577 12.4465 37.2955C12.1735 37.5334 11.8392 37.7159 11.4493 37.8486C11.0593 37.9814 10.6137 38.0478 10.1234 38.0478H8.45774V38.0422ZM8.45774 37.5278H10.1179C10.5134 37.5278 10.8699 37.4725 11.1819 37.3674C11.4938 37.2568 11.7557 37.1075 11.9729 36.9139C12.1902 36.7203 12.3573 36.4936 12.4743 36.2336C12.5913 35.9736 12.647 35.686 12.647 35.3763C12.647 34.696 12.4353 34.1705 12.0119 33.8C11.5886 33.4294 10.9591 33.2469 10.1179 33.2469H8.45774V37.5278Z" fill="#473560"/>
<path d="M31.965 41.6155H31.4637C31.4024 41.6155 31.3578 41.5989 31.3188 41.5712C31.2798 41.538 31.252 41.4993 31.2297 41.4495L30.1712 38.8666H25.7758L24.7285 41.4495C24.7118 41.4938 24.6839 41.538 24.6394 41.5712C24.5948 41.6044 24.5447 41.621 24.489 41.621H23.9932L27.6532 32.7383H28.2994L31.965 41.6155ZM25.9764 38.3909H29.9874L28.1602 33.8998C28.1323 33.8279 28.0989 33.7504 28.071 33.6564C28.0432 33.5679 28.0097 33.4739 27.9819 33.3688C27.954 33.4684 27.9206 33.5624 27.8927 33.6564C27.8649 33.7449 27.8315 33.8279 27.8036 33.9053L25.9764 38.3909Z" fill="#473560"/>
<path d="M45.8085 37.954V41.621H45.1567V37.954L41.8477 32.7383H42.4103C42.4716 32.7383 42.5162 32.7549 42.5552 32.777C42.5886 32.8047 42.6276 32.8434 42.661 32.8931L45.2236 36.975C45.2849 37.069 45.335 37.1631 45.374 37.2571C45.4186 37.3456 45.452 37.4396 45.4854 37.5281C45.5188 37.4341 45.5578 37.3456 45.5968 37.2571C45.6414 37.1686 45.6915 37.0746 45.7472 36.975L48.3043 32.8931C48.3321 32.8489 48.36 32.8102 48.399 32.7825C48.438 32.7549 48.4825 32.7383 48.5438 32.7383H49.112L45.8085 37.954Z" fill="#473560"/>
<path d="M65.8382 39.4086C65.8661 39.3423 65.8884 39.2759 65.9162 39.2095C65.9441 39.1431 65.9719 39.0823 66.0053 39.027L69.5205 32.8544C69.554 32.7991 69.5874 32.7659 69.6208 32.7549C69.6542 32.7438 69.6988 32.7383 69.7601 32.7383H70.2113V41.621H69.6431V34.0491C69.6431 33.9385 69.6487 33.8279 69.6598 33.7062L66.139 39.9175C66.0778 40.0281 65.9942 40.0779 65.8883 40.0779H65.7881C65.6822 40.0779 65.5987 40.0226 65.5318 39.9175L61.9163 33.7007C61.9275 33.8224 61.9386 33.9385 61.9386 34.0491V41.621H61.376V32.7383H61.8161C61.8773 32.7383 61.9219 32.7438 61.9609 32.7549C61.9999 32.7659 62.0333 32.7991 62.0668 32.8544L65.6767 39.0325C65.7379 39.1487 65.7936 39.2759 65.8382 39.4086Z" fill="#473560"/>
<path d="M89.0545 32.7438V33.2748H84.3415V36.8644H88.2634V37.3843H84.3415V41.09H89.0545V41.621H83.6953V32.7383H89.0545V32.7438Z" fill="#473560"/>
<path d="M102.564 32.7563C102.598 32.7729 102.631 32.8006 102.67 32.8559L108.464 40.555C108.453 40.4278 108.447 40.3061 108.447 40.1899V32.7398H109.015V41.6225H108.703C108.609 41.6225 108.531 41.5782 108.469 41.4953L102.653 33.7851C102.664 33.9123 102.67 34.0285 102.67 34.1446V41.6225H102.107V32.7398H102.425C102.486 32.7342 102.531 32.7453 102.564 32.7563Z" fill="#473560"/>
<path d="M128.025 32.7383V33.2858H124.883V41.621H124.237V33.2858H121.078V32.7383H128.025Z" fill="#473560"/>
<path d="M144.588 34.1018C144.549 34.1737 144.493 34.2069 144.426 34.2069C144.37 34.2069 144.298 34.1682 144.214 34.0907C144.125 34.0133 144.008 33.9303 143.863 33.8308C143.713 33.7368 143.529 33.6483 143.306 33.5708C143.083 33.4934 142.81 33.4491 142.487 33.4491C142.164 33.4491 141.875 33.4934 141.629 33.5874C141.384 33.6814 141.173 33.8031 141.006 33.9635C140.838 34.1239 140.71 34.3064 140.627 34.5166C140.538 34.7268 140.499 34.948 140.499 35.1748C140.499 35.4735 140.565 35.7279 140.694 35.9215C140.822 36.1206 140.994 36.2865 141.206 36.4248C141.418 36.5631 141.657 36.6792 141.925 36.7732C142.192 36.8673 142.471 36.9613 142.749 37.0553C143.033 37.1493 143.306 37.2489 143.574 37.3595C143.841 37.4702 144.081 37.6084 144.292 37.7744C144.504 37.9403 144.671 38.1505 144.805 38.3938C144.938 38.6372 145 38.9414 145 39.3064C145 39.677 144.933 40.031 144.805 40.3573C144.677 40.6836 144.487 40.9712 144.248 41.2146C144.003 41.458 143.702 41.6515 143.351 41.7898C142.994 41.9281 142.593 42 142.136 42C141.546 42 141.039 41.8949 140.61 41.6903C140.187 41.4801 139.813 41.198 139.49 40.8385L139.668 40.5619C139.719 40.5011 139.78 40.4679 139.847 40.4679C139.886 40.4679 139.936 40.4956 139.992 40.5453C140.053 40.5951 140.12 40.656 140.209 40.7279C140.292 40.7998 140.393 40.8827 140.515 40.9657C140.638 41.0487 140.772 41.1316 140.928 41.2035C141.083 41.2754 141.262 41.3363 141.468 41.3861C141.668 41.4358 141.902 41.4635 142.159 41.4635C142.515 41.4635 142.833 41.4082 143.111 41.3031C143.39 41.198 143.624 41.0487 143.819 40.8662C144.014 40.6836 144.159 40.4624 144.259 40.208C144.359 39.9535 144.409 39.6825 144.409 39.3949C144.409 39.0797 144.342 38.8252 144.214 38.6206C144.086 38.4159 143.913 38.25 143.702 38.1117C143.49 37.9735 143.251 37.8628 142.983 37.7688C142.716 37.6748 142.437 37.5863 142.159 37.4978C141.875 37.4093 141.602 37.3098 141.334 37.2047C141.067 37.094 140.827 36.9558 140.616 36.7898C140.404 36.6184 140.237 36.4082 140.103 36.1538C139.975 35.8993 139.908 35.5841 139.908 35.2024C139.908 34.9038 139.964 34.6162 140.081 34.3396C140.192 34.0631 140.359 33.8197 140.582 33.6095C140.799 33.3994 141.072 33.2279 141.395 33.1007C141.719 32.9735 142.086 32.9071 142.498 32.9071C142.961 32.9071 143.379 32.979 143.746 33.1283C144.114 33.2777 144.454 33.4989 144.755 33.7976L144.588 34.1018Z" fill="#473560"/>
</svg>
