<svg width="30" height="30" viewBox="0 0 30 30" fill="none" xmlns="http://www.w3.org/2000/svg">
<path fill-rule="evenodd" clip-rule="evenodd" d="M6.25 1.5625C4.35153 1.5625 2.8125 3.10153 2.8125 5C2.8125 6.89848 4.35153 8.4375 6.25 8.4375C8.14848 8.4375 9.6875 6.89848 9.6875 5C9.6875 3.10153 8.14848 1.5625 6.25 1.5625ZM4.6875 5C4.6875 4.13705 5.38705 3.4375 6.25 3.4375C7.11295 3.4375 7.8125 4.13705 7.8125 5C7.8125 5.86295 7.11295 6.5625 6.25 6.5625C5.38705 6.5625 4.6875 5.86295 4.6875 5Z" fill="#A5A5A5"/>
<path fill-rule="evenodd" clip-rule="evenodd" d="M2.8125 10C2.8125 9.48224 3.23224 9.0625 3.75 9.0625H8.75C9.26776 9.0625 9.6875 9.48224 9.6875 10V26.25C9.6875 26.7677 9.26776 27.1875 8.75 27.1875H3.75C3.23224 27.1875 2.8125 26.7677 2.8125 26.25V10ZM4.6875 10.9375V25.3125H7.8125V10.9375H4.6875Z" fill="#A5A5A5"/>
<path fill-rule="evenodd" clip-rule="evenodd" d="M11.5625 10C11.5625 9.48224 11.9822 9.0625 12.5 9.0625H17.5C18.0177 9.0625 18.4375 9.48224 18.4375 10V10.5425L18.9816 10.3094C19.917 9.90845 20.9174 9.65706 21.9291 9.56509C25.3978 9.24975 28.4375 11.9755 28.4375 15.4753V26.25C28.4375 26.7677 28.0177 27.1875 27.5 27.1875H22.5C21.9823 27.1875 21.5625 26.7677 21.5625 26.25V17.5C21.5625 17.0856 21.3979 16.6881 21.1049 16.3951C20.8119 16.1021 20.4144 15.9375 20 15.9375C19.5856 15.9375 19.1881 16.1021 18.8951 16.3951C18.6021 16.6881 18.4375 17.0856 18.4375 17.5V26.25C18.4375 26.7677 18.0177 27.1875 17.5 27.1875H12.5C11.9822 27.1875 11.5625 26.7677 11.5625 26.25V10ZM13.4375 10.9375V25.3125H16.5625V17.5C16.5625 16.5884 16.9246 15.714 17.5694 15.0694C18.214 14.4246 19.0884 14.0625 20 14.0625C20.9116 14.0625 21.786 14.4246 22.4306 15.0694C23.0754 15.714 23.4375 16.5884 23.4375 17.5V25.3125H26.5625V15.4753C26.5625 13.0949 24.4862 11.2153 22.0989 11.4324C21.2812 11.5067 20.473 11.7101 19.7203 12.0327L17.8692 12.826C17.5796 12.9501 17.247 12.9204 16.9839 12.747C16.7209 12.5735 16.5625 12.2794 16.5625 11.9643V10.9375H13.4375Z" fill="#A5A5A5"/>
</svg>
