<svg width="30" height="30" viewBox="0 0 30 30" fill="none" xmlns="http://www.w3.org/2000/svg">
<path fill-rule="evenodd" clip-rule="evenodd" d="M3.50467 10.4417C3.15449 13.6953 3.1701 17.4478 3.65738 20.6882C3.927 22.4812 5.39034 23.8557 7.19668 24.0128L9.08447 24.1768C13.0208 24.5191 16.9793 24.5191 20.9157 24.1768L22.8034 24.0128C24.6098 23.8557 26.0732 22.4812 26.3428 20.6882C26.8301 17.4478 26.8457 13.6956 26.4954 10.4419C26.4502 10.0647 26.3993 9.68802 26.3428 9.31196C26.0732 7.51897 24.6098 6.14441 22.8034 5.98738L20.9157 5.82328C16.9793 5.48111 13.0208 5.48111 9.08447 5.82328L7.19668 5.98738C5.39034 6.14441 3.927 7.51897 3.65738 9.31196C3.60084 9.68794 3.54994 10.0646 3.50467 10.4417ZM9.24684 7.69124C13.0751 7.35846 16.9251 7.35846 20.7533 7.69124L22.6411 7.85534C23.5839 7.93731 24.3478 8.65483 24.4886 9.59077C24.5032 9.68797 24.5174 9.78521 24.5313 9.88249L17.5801 13.7443C15.9756 14.6357 14.0246 14.6357 12.42 13.7443L5.46887 9.88254C5.48269 9.78524 5.49692 9.68798 5.51153 9.59077C5.65228 8.65483 6.41614 7.93731 7.35905 7.85534L9.24684 7.69124ZM24.7607 11.9C25.0032 14.7346 24.9124 17.5907 24.4886 20.4093C24.3478 21.3453 23.5839 22.0628 22.6411 22.1448L20.7533 22.309C16.9251 22.6417 13.0751 22.6417 9.24684 22.309L7.35905 22.1448C6.41614 22.0628 5.65228 21.3453 5.51153 20.4093C5.08767 17.5907 4.99697 14.7347 5.23943 11.9L11.5095 15.3833C13.6803 16.5893 16.3198 16.5893 18.4906 15.3833L24.7607 11.9Z" fill="#A5A5A5"/>
</svg>
