<svg width="30" height="30" viewBox="0 0 30 30" fill="none" xmlns="http://www.w3.org/2000/svg">
<path fill-rule="evenodd" clip-rule="evenodd" d="M7.23449 17.5245C7.2892 17.543 7.34443 17.556 7.3996 17.564C7.45978 17.7055 7.53751 17.8884 7.62821 18.1023C7.84956 18.6243 8.1478 19.3304 8.45564 20.0669C9.08345 21.569 9.71671 23.1174 9.85658 23.5606C10.0297 24.1085 10.2127 24.481 10.4125 24.7354C10.5158 24.8669 10.6353 24.9816 10.7751 25.0686C10.8455 25.1124 10.9198 25.1482 10.9974 25.175C11.0008 25.1762 11.0043 25.1774 11.0077 25.1785C11.4077 25.3295 11.7724 25.2666 12.0007 25.1898C12.1229 25.1485 12.2218 25.0989 12.2918 25.0586C12.3275 25.038 12.3577 25.0189 12.3818 25.0026L12.3875 24.9989L15.9202 22.7958L20.0009 25.9243C20.0611 25.9704 20.1267 26.0091 20.1964 26.0395C20.6866 26.2534 21.1612 26.328 21.6079 26.267C22.0536 26.2061 22.4076 26.0189 22.6711 25.808C22.9291 25.6016 23.104 25.3704 23.213 25.1986C23.2686 25.1109 23.3104 25.0332 23.3397 24.9739C23.3546 24.944 23.3665 24.9183 23.3756 24.8976L23.3875 24.8704L23.3919 24.8596L23.3937 24.8551L23.3946 24.853L23.3954 24.851C23.4169 24.7974 23.4332 24.7419 23.4445 24.6852L27.1699 5.90343C27.1817 5.84336 27.1877 5.78226 27.1877 5.72102C27.1877 5.17101 26.9805 4.64801 26.4932 4.33065C26.0767 4.0594 25.6127 4.04772 25.3195 4.06997C25.0032 4.09399 24.7111 4.17207 24.515 4.23446C24.413 4.26694 24.3275 4.29826 24.2659 4.32216C24.2349 4.33417 24.2094 4.34449 24.1905 4.35235L24.1762 4.35832L3.28413 12.554L3.28143 12.555C3.26811 12.5599 3.25101 12.5663 3.2307 12.5741C3.19025 12.5899 3.13604 12.612 3.07273 12.6408C2.94925 12.6968 2.77603 12.7841 2.59826 12.9059C2.31428 13.1004 1.66116 13.633 1.77114 14.5121C1.85888 15.2135 2.33935 15.6442 2.63209 15.8514C2.79283 15.9651 2.94554 16.0464 3.05675 16.0994C3.10834 16.1239 3.21546 16.1674 3.26194 16.1864L3.27368 16.1911L7.23449 17.5245ZM24.9075 6.08482L24.9045 6.0861C24.8941 6.09062 24.8836 6.09495 24.8731 6.0991L3.95556 14.3048C3.94464 14.309 3.93364 14.3131 3.92256 14.317L3.91093 14.3214C3.89754 14.3266 3.87501 14.3357 3.84674 14.3485C3.8307 14.3558 3.81396 14.3637 3.7969 14.3722C3.82035 14.3855 3.84278 14.3969 3.86271 14.4064C3.88185 14.4155 3.89645 14.4218 3.90444 14.425L7.83273 15.7475C7.90463 15.7717 7.97165 15.8038 8.03317 15.8425L21.0041 8.24935L21.0162 8.24218C21.0257 8.23659 21.0381 8.22941 21.053 8.221C21.0825 8.20431 21.1231 8.1821 21.1714 8.15754C21.2614 8.11172 21.4054 8.04371 21.5676 7.99356C21.6806 7.95865 22.0137 7.86029 22.3739 7.9758C22.5961 8.04709 22.8262 8.20035 22.9759 8.45998C23.0502 8.58896 23.0899 8.71854 23.109 8.83715C23.16 9.024 23.152 9.20851 23.1121 9.3678C23.0261 9.71094 22.785 9.97859 22.5656 10.1833C22.3777 10.3588 19.946 12.7036 17.5471 15.0184C16.3507 16.1726 15.1666 17.3156 14.2816 18.1699L13.7002 18.7311L21.0402 24.3584C21.2085 24.4186 21.308 24.4156 21.3541 24.4092C21.409 24.4017 21.4539 24.3806 21.4997 24.344C21.551 24.303 21.5959 24.2475 21.6294 24.1946L21.6307 24.1925L25.2439 5.97628C25.1902 5.98916 25.136 6.00451 25.0837 6.02114C25.0245 6.03997 24.9757 6.05792 24.9434 6.07046C24.9274 6.07667 24.9159 6.08139 24.9096 6.08399L24.9075 6.08482ZM14.3309 21.5773L12.8665 20.4545L12.5116 22.7116L14.3309 21.5773ZM11.5231 18.2267L12.9794 16.8209C13.8645 15.9665 15.0487 14.8235 16.2451 13.669L17.4607 12.4963L9.31073 17.2673L9.35445 17.3704C9.57658 17.8942 9.87615 18.6034 10.1856 19.3439C10.417 19.8975 10.659 20.4805 10.8794 21.0203L11.2332 18.7698C11.2673 18.5528 11.3733 18.365 11.5231 18.2267Z" fill="#A5A5A5"/>
</svg>
