<svg width="30" height="30" viewBox="0 0 30 30" fill="none" xmlns="http://www.w3.org/2000/svg">
<path fill-rule="evenodd" clip-rule="evenodd" d="M18.7769 4.17931C19.4123 4.07046 20.1239 4.03411 20.7936 4.14741C21.9897 4.34976 23.0945 4.90568 23.9679 5.73913C24.5387 5.75204 25.0998 5.63958 25.5961 5.47925C26.0163 5.34356 26.3713 5.17971 26.6199 5.05018C26.7435 4.98576 26.839 4.93081 26.9011 4.89361C26.9321 4.87504 26.9548 4.86099 26.9681 4.8525L26.98 4.84491C27.351 4.59776 27.845 4.64586 28.1611 4.96025C28.4773 5.2747 28.5283 5.76835 28.2829 6.14073C28.0233 6.53485 27.6628 7.23744 27.259 8.02464C27.1955 8.14841 27.1309 8.27428 27.0655 8.40136C26.8339 8.85131 26.5964 9.30609 26.375 9.69625C26.236 9.94123 26.0874 10.19 25.9375 10.4049V10.7471C25.947 12.0041 25.8029 13.2546 25.5103 14.4711C25.3261 15.2366 25.0833 15.9886 24.783 16.7203C24.005 18.6161 22.857 20.338 21.4061 21.7851C19.9551 23.2323 18.2304 24.3758 16.3326 25.1491C14.4365 25.9215 12.4055 26.3087 10.3582 26.2882C7.39034 26.2908 4.48488 25.4357 1.99148 23.8258C1.62423 23.5887 1.4696 23.1292 1.61878 22.7183C1.76794 22.3073 2.18131 22.0541 2.61515 22.1078C2.9906 22.1543 3.36861 22.177 3.74693 22.1757C5.10624 22.172 6.43966 21.8716 7.65699 21.3057C7.27005 21.1296 6.90064 20.9125 6.55544 20.6565C5.5408 19.9041 4.78591 18.8541 4.39583 17.6527C4.29445 17.3406 4.36375 16.9981 4.57853 16.7498C4.58236 16.7453 4.58625 16.741 4.59018 16.7366C4.36076 16.5321 4.1461 16.3093 3.94848 16.0698C3.05934 14.9921 2.56974 13.6402 2.56251 12.2431L2.56249 12.2382L2.5625 12.1757C2.5625 11.8434 2.73844 11.5359 3.02494 11.3675C3.09758 11.3248 3.17455 11.2927 3.25374 11.2711C2.83083 10.4273 2.61089 9.49546 2.6125 8.55014C2.612 7.47918 2.89175 6.42671 3.42395 5.49734C3.57759 5.22905 3.85363 5.05375 4.16179 5.02878C4.46994 5.00381 4.7706 5.13238 4.96543 5.37244C6.16863 6.85495 7.67024 8.06776 9.37271 8.9321C10.2479 9.37643 11.1661 9.72354 12.1108 9.96909C12.6405 10.1068 13.1785 10.2125 13.722 10.2855C13.698 9.38144 13.8765 8.47785 14.2513 7.64294C14.8009 6.41816 15.7414 5.41044 16.9255 4.77783C17.4269 4.50991 18.0925 4.29653 18.7769 4.17931ZM4.67909 13.6137C4.84115 14.0698 5.08224 14.4977 5.3948 14.8766C6.00896 15.621 6.86139 16.1305 7.80791 16.3187C8.22953 16.4026 8.54006 16.7625 8.56135 17.1918C8.58263 17.6211 8.30919 18.01 7.89795 18.1351C7.55732 18.2387 7.20835 18.311 6.85541 18.3511C7.08864 18.6517 7.36299 18.9211 7.67225 19.1503C8.37373 19.6705 9.21991 19.9591 10.0931 19.9758C10.4892 19.9835 10.8378 20.2393 10.9638 20.615C11.0898 20.9907 10.9661 21.405 10.6547 21.65C9.34326 22.682 7.82676 23.4015 6.21983 23.7688C7.55169 24.1953 8.94849 24.415 10.3614 24.4132H10.3722C12.1723 24.4318 13.958 24.0918 15.6251 23.4126C17.2924 22.7335 18.8074 21.7288 20.082 20.4576C21.3565 19.1863 22.3649 17.6738 23.0484 16.0085C23.3121 15.3656 23.5255 14.7051 23.6873 14.0327C23.9445 12.963 24.0711 11.8634 24.0625 10.7581V10.7507V10.0882C24.0625 9.8609 24.1451 9.64133 24.2949 9.47036C24.3815 9.37155 24.533 9.14336 24.7443 8.77099C24.945 8.41708 25.1673 7.9922 25.3984 7.54321C25.4124 7.51606 25.4264 7.48876 25.4405 7.46135C24.841 7.59153 24.1615 7.65976 23.4493 7.58279C23.2238 7.55841 23.0146 7.45305 22.8608 7.28625C22.2323 6.60458 21.3951 6.15083 20.4809 5.99614C20.0753 5.92751 19.5848 5.94323 19.0934 6.02739C18.5595 6.11885 18.0949 6.27886 17.809 6.43158C16.9911 6.86854 16.3415 7.5646 15.9619 8.41058C15.5822 9.25656 15.4941 10.2046 15.7114 11.1061C15.7806 11.3935 15.7104 11.6967 15.5216 11.9242C15.3329 12.1518 15.0479 12.277 14.7526 12.262C13.6984 12.2087 12.6553 12.0479 11.6392 11.7838C10.5643 11.5044 9.51964 11.1095 8.52391 10.604C7.05794 9.85971 5.72288 8.88835 4.56683 7.72874C4.51409 7.99825 4.48731 8.27329 4.4875 8.5501V8.55249C4.48619 9.24089 4.65513 9.91893 4.97926 10.5262C5.3034 11.1336 5.77268 11.6513 6.34533 12.0334C6.69285 12.2652 6.84501 12.6991 6.71844 13.0972C6.59188 13.4953 6.21713 13.7617 5.7995 13.7503C5.42126 13.7401 5.04618 13.6941 4.67909 13.6137Z" fill="#A5A5A5"/>
</svg>
